<?xml version="1.0" encoding="UTF-8"?>
<svg xmlns="http://www.w3.org/2000/svg" xml:space="preserve" fill-rule="evenodd" stroke-linejoin="round" stroke-miterlimit="2" clip-rule="evenodd" viewBox="0 0 165 45">
  <path fill="#575756" fill-rule="nonzero" d="M149.21 44.2v-6.5l3.5-3.6 5.9 10.1h5.6l-8.5-13.1 8.1-8.4h-5.8l-8.8 9.5v-9.5h-4.3v21.5h4.3Zm-8.1.1v-3.7h-12v-5.8h10.8v-3.6h-10.8v-4.8h11.5v-3.6h-15.9v21.5h16.4Zm-34.9-1.6c1.5 1.3 3.5 1.9 6.3 1.9 1.9 0 3.4-.3 4.7-.8 1.3-.5 2.2-1.3 2.9-2.4.7-1.1 1-2.2 1-3.5 0-1.4-.3-2.5-.9-3.4-.6-.9-1.4-1.7-2.4-2.2-1-.5-2.6-1-4.7-1.5s-3.4-1-4-1.4c-.4-.4-.6-.8-.6-1.3 0-.6.2-1 .7-1.3.7-.5 1.7-.8 3-.8 1.2 0 2.1.2 2.7.7.6.5 1 1.3 1.2 2.4l4.3-.2c-.1-2-.8-3.5-2.1-4.7-1.4-1.2-3.4-1.8-6.1-1.8-1.7 0-3.1.2-4.2.7-1.2.5-2.1 1.2-2.7 2.2-.6 1-.9 2-.9 3.1 0 1.7.7 3.1 2 4.3.9.8 2.6 1.5 4.9 2.1 1.8.4 3 .8 3.5.9.7.3 1.3.6 1.6.9.3.3.4.8.4 1.3 0 .8-.4 1.5-1.1 2.1-.7.6-1.8.9-3.2.9-1.3 0-2.4-.3-3.1-1-.8-.7-1.3-1.7-1.5-3.1l-4.2.4c.2 2.4 1.1 4.3 2.5 5.5m-10.2-6.1c0 1.7-.2 2.9-.6 3.4-.4.6-1.1.8-2.1.8s-1.7-.4-2.1-1.2c-.3-.5-.5-1.4-.5-2.6l-4.1.5c0 2.3.6 4 1.7 5.2 1.1 1.2 2.8 1.8 4.9 1.8 1.8 0 3.3-.4 4.4-1.1 1.1-.8 1.9-1.8 2.3-3 .3-1 .5-2.3.5-4.1V22.7h-4.3v13.9h-.1Zm-11.6 7.7v-3.7h-12v-5.8h10.8v-3.6h-10.8v-4.8h11.6v-3.6h-15.9v21.5h16.3Zm-33.8-17.9h3.4c1.8 0 2.8 0 3.2.1.7.1 1.2.4 1.6.8.4.4.6 1 .6 1.8 0 .6-.1 1.2-.4 1.6-.3.4-.7.7-1.2.9-.5.2-1.8.3-3.9.3h-3.3v-5.5Zm0 17.8v-9h.9c1 0 1.7.1 2.2.2.5.2.9.5 1.3.9s1.2 1.5 2.3 3.2l3.1 4.7h5.2l-2.7-4.2c-1-1.7-1.9-2.8-2.5-3.5-.6-.7-1.4-1.3-2.3-1.8 1.9-.3 3.3-.9 4.2-2 .9-1 1.4-2.4 1.4-4 0-1.3-.3-2.4-.9-3.4-.6-1-1.5-1.7-2.5-2.1-1-.4-2.7-.6-5-.6h-9.1v21.5h4.4v.1Zm-22.6-16.3c1.1-1.2 2.5-1.8 4.3-1.8 1.8 0 3.2.6 4.3 1.8 1.1 1.2 1.6 3 1.6 5.5s-.6 4.4-1.7 5.6c-1.1 1.2-2.5 1.9-4.3 1.9-1.8 0-3.2-.6-4.3-1.9-1.1-1.3-1.7-3.1-1.7-5.5.2-2.5.7-4.4 1.8-5.6m-3.3 13.8c1.9 1.9 4.4 2.9 7.6 2.9 3.2 0 5.7-1 7.6-2.9 1.9-2 2.8-4.7 2.8-8.1 0-3.5-.9-6.2-2.8-8.2-1.9-2-4.4-2.9-7.6-2.9-1.7 0-3.3.3-4.6.8-1 .4-1.9 1.1-2.8 1.9-.8.9-1.5 1.9-2 2.9-.7 1.5-1 3.3-1 5.5 0 3.4.9 6.1 2.8 8.1m-19.3 2.5v-9.4h8.5v9.4h4.3V22.7h-4.3v8.5h-8.5v-8.5h-4.3v21.5h4.3Z"></path>
  <path fill="#dc0814" fill-rule="nonzero" d="M157.81 18.4v-7.6l6.6-10.4h-4.2l-4.1 7.1-4.2-7.1h-4.3l6.6 10.4v7.6h3.6Zm-24-.1V6.6l7.2 11.7h3.6V.4h-3.4v12l-7.3-12h-3.5v17.9h3.4ZM126.01.4h-3.6v17.9h3.6V.4Zm-19.1 17.9V6.6l7.2 11.7h3.6V.4h-3.4v12l-7.3-12h-3.5v17.9h3.4Zm-15.7-7.8c1.6 0 2.7.1 3.2.3.5.2.9.4 1.1.8.2.4.4.8.4 1.4 0 .6-.2 1.1-.5 1.5-.3.4-.8.6-1.3.7-.4.1-1.2.1-2.5.1h-3.4v-4.8h3Zm-.8-7.1c1.7 0 2.7 0 3.1.1.6.1 1.1.3 1.4.6.3.3.5.8.5 1.4 0 .6-.2 1-.5 1.4-.4.4-.8.6-1.5.6-.3 0-1.2.1-2.6.1h-2.4V3.4h2Zm-5.8 14.9h6.2c2.3 0 3.8-.1 4.4-.1 1-.1 1.8-.4 2.4-.9.6-.5 1.2-1.1 1.6-1.8.4-.8.6-1.6.6-2.4 0-1-.3-1.9-.9-2.7-.6-.8-1.4-1.3-2.5-1.6.8-.4 1.4-.9 1.8-1.6.5-.7.7-1.5.7-2.3 0-.8-.2-1.5-.6-2.1-.4-.6-.8-1.1-1.4-1.5-.6-.4-1.2-.6-1.9-.7-.7-.1-1.8-.2-3.2-.2h-7.2v17.9Zm-3.8 0v-3h-10v-4.9h9v-3h-9v-4h9.7v-3h-13.4v17.9h13.7Zm-22.9 0L64.31.4h-3.8l-4.4 13.3L51.51.4h-3.9l6.4 17.9h3.9Zm-21.3-7.1 2.4-6.7 2.5 6.7h-4.9ZM41.01.4h-3.8l-7 17.9h3.8l1.5-4.1h7.2l1.6 4.1h3.9L41.01.4Zm-15.4 17.9V3.4h5.3v-3h-14.3v3h5.3v14.9h3.7Zm-23.7-1.2c1.2 1 3 1.6 5.2 1.6 1.6 0 2.9-.2 3.9-.7 1-.4 1.9-1.1 2.4-2 .6-.9.9-1.9.9-2.9 0-1.1-.2-2.1-.7-2.9-.5-.8-1.1-1.4-2-1.8-.8-.4-2.1-.9-3.9-1.3-1.8-.4-2.9-.8-3.3-1.2-.4-.3-.5-.7-.5-1.1 0-.5.2-.8.6-1.1.6-.4 1.4-.6 2.5-.6 1 0 1.8.2 2.3.6.5.4.8 1.1 1 2l3.6-.2c-.1-1.6-.7-3-1.8-4S9.31 0 7.01 0c-1.4 0-2.6.2-3.5.6-1 .4-1.7 1-2.2 1.8-.5.8-.8 1.7-.8 2.6 0 1.4.6 2.6 1.7 3.6.8.7 2.1 1.3 4.1 1.8 1.5.4 2.5.6 2.9.8.6.2 1.1.5 1.3.8.2.3.4.7.4 1.1 0 .7-.3 1.2-.9 1.7-.6.5-1.5.7-2.6.7s-2-.3-2.6-.8c-.6-.6-1.1-1.4-1.3-2.6l-3.5.3c-.1 2.1.6 3.6 1.9 4.7"></path>
</svg>
